<svg width="85" height="48" viewBox="0 0 85 48" fill="none" xmlns="http://www.w3.org/2000/svg">
<g filter="url(#filter0_d)">
<path fill-rule="evenodd" clip-rule="evenodd" d="M63.0333 0.75473L81 40H4L21.9667 0.75473H63.0333Z" fill="url(#paint0_linear)"/>
</g>
<g filter="url(#filter1_d)">
<path fill-rule="evenodd" clip-rule="evenodd" d="M81 1.52588e-05L4.00003 1.52588e-05L21.9667 39.2453L63.0333 39.2453L81 1.52588e-05Z" fill="url(#paint1_linear)"/>
</g>
<g filter="url(#filter2_dd)">
<path fill-rule="evenodd" clip-rule="evenodd" d="M7.81189 37.3204H76.5928L60.5439 2.26416H23.8608L7.81189 37.3204Z" fill="#580808"/>
</g>
<g filter="url(#filter3_dd)">
<path fill-rule="evenodd" clip-rule="evenodd" d="M23.8607 36.5656L7.81185 1.50943L76.5928 1.50943L60.5439 36.5656L23.8607 36.5656Z" fill="#580808"/>
</g>
<g filter="url(#filter4_d)">
<path d="M30.1797 22.3298H26.8357V34.6038H25.2207V22.3298H21.9147V20.9238H30.1797V22.3298ZM34.2878 23.9638V34.6038H32.7298V23.9638H34.2878ZM43.0415 34.6038L40.1155 26.2438V34.6038H38.6525V23.9638H40.8375L43.8965 32.8558L46.7085 23.9638H48.8935V34.6038H47.3735V26.2438L44.6755 34.6038H43.0415ZM59.1487 29.8158H54.8167V33.3308H59.6997V34.6038H53.2587V23.9638H59.6997V25.2368H54.8167V28.5808H59.1487V29.8158Z" fill="white"/>
</g>
<g filter="url(#filter5_d)">
<path d="M14.6613 9.97134C14.6613 8.64134 14.8006 7.52667 15.0793 6.62734C15.3579 5.71534 15.7253 4.98067 16.1813 4.42334C16.6373 3.86601 17.1566 3.46701 17.7393 3.22634C18.3346 2.97301 18.9489 2.84634 19.5823 2.84634C20.2156 2.84634 20.8236 2.97301 21.4063 3.22634C22.0016 3.46701 22.5273 3.86601 22.9833 4.42334C23.4393 4.98067 23.8066 5.71534 24.0853 6.62734C24.3639 7.52667 24.5033 8.64134 24.5033 9.97134C24.5033 11.3013 24.3639 12.4223 24.0853 13.3343C23.8066 14.2337 23.4393 14.962 22.9833 15.5193C22.5273 16.0767 22.0016 16.482 21.4063 16.7353C20.8109 16.976 20.2029 17.0963 19.5823 17.0963C18.9489 17.0963 18.3346 16.976 17.7393 16.7353C17.1566 16.482 16.6373 16.0767 16.1813 15.5193C15.7253 14.962 15.3579 14.2337 15.0793 13.3343C14.8006 12.4223 14.6613 11.3013 14.6613 9.97134ZM16.3143 9.97134C16.3143 11.8967 16.5866 13.3597 17.1313 14.3603C17.6759 15.361 18.4929 15.8613 19.5823 15.8613C20.6716 15.8613 21.4886 15.361 22.0333 14.3603C22.5779 13.3597 22.8503 11.8967 22.8503 9.97134C22.8503 8.04601 22.5779 6.58301 22.0333 5.58234C21.4886 4.58167 20.6716 4.08134 19.5823 4.08134C18.4929 4.08134 17.6759 4.58167 17.1313 5.58234C16.5866 6.58301 16.3143 8.04601 16.3143 9.97134ZM35.1471 6.17134V16.8113H32.9431L29.0101 7.91934V16.8113H27.5471V6.17134H29.7891L33.7221 14.9683V6.17134H35.1471ZM40.1266 6.17134V15.4623H45.2376V16.8113H38.5686V6.17134H40.1266ZM48.8844 6.17134V16.8113H47.3264V6.17134H48.8844ZM59.8991 6.17134V16.8113H57.6951L53.7621 7.91934V16.8113H52.2991V6.17134H54.5411L58.4741 14.9683V6.17134H59.8991ZM69.2106 12.0233H64.8786V15.5383H69.7616V16.8113H63.3206V6.17134H69.7616V7.44434H64.8786V10.7883H69.2106V12.0233Z" fill="white"/>
</g>
<defs>
<filter id="filter0_d" x="0" y="0.75473" width="85" height="47.2453" filterUnits="userSpaceOnUse" color-interpolation-filters="sRGB">
<feFlood flood-opacity="0" result="BackgroundImageFix"/>
<feColorMatrix in="SourceAlpha" type="matrix" values="0 0 0 0 0 0 0 0 0 0 0 0 0 0 0 0 0 0 127 0"/>
<feOffset dy="4"/>
<feGaussianBlur stdDeviation="2"/>
<feColorMatrix type="matrix" values="0 0 0 0 0 0 0 0 0 0 0 0 0 0 0 0 0 0 0.25 0"/>
<feBlend mode="normal" in2="BackgroundImageFix" result="effect1_dropShadow"/>
<feBlend mode="normal" in="SourceGraphic" in2="effect1_dropShadow" result="shape"/>
</filter>
<filter id="filter1_d" x="0" y="0" width="85" height="47.2453" filterUnits="userSpaceOnUse" color-interpolation-filters="sRGB">
<feFlood flood-opacity="0" result="BackgroundImageFix"/>
<feColorMatrix in="SourceAlpha" type="matrix" values="0 0 0 0 0 0 0 0 0 0 0 0 0 0 0 0 0 0 127 0"/>
<feOffset dy="4"/>
<feGaussianBlur stdDeviation="2"/>
<feColorMatrix type="matrix" values="0 0 0 0 0 0 0 0 0 0 0 0 0 0 0 0 0 0 0.25 0"/>
<feBlend mode="normal" in2="BackgroundImageFix" result="effect1_dropShadow"/>
<feBlend mode="normal" in="SourceGraphic" in2="effect1_dropShadow" result="shape"/>
</filter>
<filter id="filter2_dd" x="3.81189" y="2.26416" width="76.7809" height="43.0562" filterUnits="userSpaceOnUse" color-interpolation-filters="sRGB">
<feFlood flood-opacity="0" result="BackgroundImageFix"/>
<feColorMatrix in="SourceAlpha" type="matrix" values="0 0 0 0 0 0 0 0 0 0 0 0 0 0 0 0 0 0 127 0"/>
<feOffset dy="4"/>
<feGaussianBlur stdDeviation="2"/>
<feColorMatrix type="matrix" values="0 0 0 0 0 0 0 0 0 0 0 0 0 0 0 0 0 0 0.25 0"/>
<feBlend mode="normal" in2="BackgroundImageFix" result="effect1_dropShadow"/>
<feColorMatrix in="SourceAlpha" type="matrix" values="0 0 0 0 0 0 0 0 0 0 0 0 0 0 0 0 0 0 127 0"/>
<feOffset dy="4"/>
<feGaussianBlur stdDeviation="2"/>
<feColorMatrix type="matrix" values="0 0 0 0 0 0 0 0 0 0 0 0 0 0 0 0 0 0 0.25 0"/>
<feBlend mode="normal" in2="effect1_dropShadow" result="effect2_dropShadow"/>
<feBlend mode="normal" in="SourceGraphic" in2="effect2_dropShadow" result="shape"/>
</filter>
<filter id="filter3_dd" x="3.81189" y="1.50943" width="76.7809" height="43.0562" filterUnits="userSpaceOnUse" color-interpolation-filters="sRGB">
<feFlood flood-opacity="0" result="BackgroundImageFix"/>
<feColorMatrix in="SourceAlpha" type="matrix" values="0 0 0 0 0 0 0 0 0 0 0 0 0 0 0 0 0 0 127 0"/>
<feOffset dy="4"/>
<feGaussianBlur stdDeviation="2"/>
<feColorMatrix type="matrix" values="0 0 0 0 0 0 0 0 0 0 0 0 0 0 0 0 0 0 0.25 0"/>
<feBlend mode="normal" in2="BackgroundImageFix" result="effect1_dropShadow"/>
<feColorMatrix in="SourceAlpha" type="matrix" values="0 0 0 0 0 0 0 0 0 0 0 0 0 0 0 0 0 0 127 0"/>
<feOffset dy="4"/>
<feGaussianBlur stdDeviation="2"/>
<feColorMatrix type="matrix" values="0 0 0 0 0 0 0 0 0 0 0 0 0 0 0 0 0 0 0.25 0"/>
<feBlend mode="normal" in2="effect1_dropShadow" result="effect2_dropShadow"/>
<feBlend mode="normal" in="SourceGraphic" in2="effect2_dropShadow" result="shape"/>
</filter>
<filter id="filter4_d" x="17.9147" y="20.9238" width="45.7851" height="21.68" filterUnits="userSpaceOnUse" color-interpolation-filters="sRGB">
<feFlood flood-opacity="0" result="BackgroundImageFix"/>
<feColorMatrix in="SourceAlpha" type="matrix" values="0 0 0 0 0 0 0 0 0 0 0 0 0 0 0 0 0 0 127 0"/>
<feOffset dy="4"/>
<feGaussianBlur stdDeviation="2"/>
<feColorMatrix type="matrix" values="0 0 0 0 0 0 0 0 0 0 0 0 0 0 0 0 0 0 0.25 0"/>
<feBlend mode="normal" in2="BackgroundImageFix" result="effect1_dropShadow"/>
<feBlend mode="normal" in="SourceGraphic" in2="effect1_dropShadow" result="shape"/>
</filter>
<filter id="filter5_d" x="10.6613" y="2.84634" width="63.1003" height="22.25" filterUnits="userSpaceOnUse" color-interpolation-filters="sRGB">
<feFlood flood-opacity="0" result="BackgroundImageFix"/>
<feColorMatrix in="SourceAlpha" type="matrix" values="0 0 0 0 0 0 0 0 0 0 0 0 0 0 0 0 0 0 127 0"/>
<feOffset dy="4"/>
<feGaussianBlur stdDeviation="2"/>
<feColorMatrix type="matrix" values="0 0 0 0 0 0 0 0 0 0 0 0 0 0 0 0 0 0 0.25 0"/>
<feBlend mode="normal" in2="BackgroundImageFix" result="effect1_dropShadow"/>
<feBlend mode="normal" in="SourceGraphic" in2="effect1_dropShadow" result="shape"/>
</filter>
<linearGradient id="paint0_linear" x1="42.5" y1="0.75473" x2="42.5" y2="40" gradientUnits="userSpaceOnUse">
<stop offset="0.130208" stop-color="#0D0F23"/>
<stop offset="0.359375" stop-color="#0D3E6C"/>
<stop offset="0.682292" stop-color="#0E67AE"/>
<stop offset="0.911458" stop-color="#0B7ED1"/>
</linearGradient>
<linearGradient id="paint1_linear" x1="42.5" y1="39.2453" x2="42.5" y2="1.90735e-05" gradientUnits="userSpaceOnUse">
<stop offset="0.130208" stop-color="#0D0F23"/>
<stop offset="0.359375" stop-color="#0D3E6C"/>
<stop offset="0.682292" stop-color="#0E67AE"/>
<stop offset="0.911458" stop-color="#0B7ED1"/>
</linearGradient>
</defs>
</svg>
